<svg width="54" height="54" viewBox="0 0 54 54" fill="none" xmlns="http://www.w3.org/2000/svg">
<g clip-path="url(#clip0_262_84)">
<path d="M53.9055 4.45502C53.7637 2.25002 52.0717 0.576017 49.8262 0.443267C47.3467 0.294767 39.3232 0.173267 37.017 0.173267C41.139 3.01727 41.7015 8.37227 42.0907 18.3218C42.318 24.2168 42.1132 44.8695 42.0952 45.7448L41.985 51.3788L20.322 29.7113V22.9298L37.548 40.1603C37.593 36.7493 37.638 32.3033 37.638 28.2375C37.638 24.2775 37.5795 20.691 37.467 18.8033C36.819 7.96052 35.8087 2.88002 30.1477 0.888767C28.4152 0.281267 26.802 0.135017 24.111 0.0990172C21.888 0.0720172 6.40799 0.0832672 4.17149 0.204767C1.79999 0.330767 0.202489 2.05652 0.0944891 4.27502C-0.0135109 6.47327 -0.0495109 47.4165 0.0944891 49.6463C0.233989 51.8513 1.92824 53.5253 4.17149 53.6558C6.65099 53.8065 14.6745 53.8245 16.983 53.8245C12.861 50.9805 12.2962 45.6278 11.9092 35.676C11.6842 29.781 11.889 9.12602 11.9092 8.25302L12.015 2.61902L33.6802 24.2865V31.0658L16.452 13.842C16.407 17.2485 16.362 21.6945 16.362 25.7625C16.362 29.7225 16.4205 33.309 16.5352 35.1945C17.1832 46.0395 18.1912 51.1178 23.8522 53.109C25.5847 53.7188 27.198 53.8673 29.889 53.901C32.1097 53.928 47.592 53.9145 49.8262 53.7953C52.2022 53.6693 53.7975 51.9458 53.9055 49.7205C54.0135 47.5245 54.0495 6.68477 53.9055 4.45502Z" fill="white"/>
</g>
<defs>
<clipPath id="clip0_262_84">
<rect width="54" height="54" fill="white"/>
</clipPath>
</defs>
</svg>
