<svg width="729" height="538" viewBox="0 0 729 538" fill="none" xmlns="http://www.w3.org/2000/svg">
<path d="M119.044 138.327H572.543" stroke="#DED8D5" stroke-width="1.9678" stroke-miterlimit="10"/>
<path d="M566.639 452.396H124.947C121.678 452.396 119.044 449.107 119.044 445.024V109.416C119.044 105.333 121.678 102.044 124.947 102.044H566.639C569.909 102.044 572.543 105.333 572.543 109.416V445.024C572.543 449.107 569.909 452.396 566.639 452.396Z" stroke="#DED8D5" stroke-width="1.9678" stroke-miterlimit="10"/>
<path d="M156.231 120.526C156.231 123.36 153.963 125.741 151.015 125.741C148.181 125.741 145.8 123.474 145.8 120.526C145.8 117.578 148.068 115.31 151.015 115.31C153.85 115.423 156.231 117.691 156.231 120.526Z" fill="#FFB1A5"/>
<path d="M176.298 120.526C176.298 123.36 174.03 125.741 171.083 125.741C168.248 125.741 165.867 123.474 165.867 120.526C165.867 117.578 168.135 115.31 171.083 115.31C174.03 115.423 176.298 117.691 176.298 120.526Z" fill="#EAD254"/>
<path d="M196.479 120.526C196.479 123.36 194.211 125.741 191.263 125.741C188.316 125.741 186.048 123.474 186.048 120.526C186.048 117.578 188.316 115.31 191.263 115.31C194.211 115.31 196.479 117.691 196.479 120.526Z" fill="#00857B"/>
<path d="M630.817 264.862H497.715C493.974 264.862 490.913 261.8 490.913 258.059V135.039C490.913 131.297 493.974 128.236 497.715 128.236H630.817C634.559 128.236 637.62 131.297 637.62 135.039V258.059C637.62 261.8 634.559 264.862 630.817 264.862Z" fill="#EDEDED"/>
<path d="M630.817 264.862H497.715C493.974 264.862 490.913 261.8 490.913 258.059V135.039C490.913 131.297 493.974 128.236 497.715 128.236H630.817C634.559 128.236 637.62 131.297 637.62 135.039V258.059C637.62 261.8 634.559 264.862 630.817 264.862Z" stroke="#DED8D5" stroke-width="1.9678" stroke-miterlimit="10"/>
<path d="M529.914 229.373H599.072C602.814 229.373 605.875 226.311 605.875 222.57V165.879C605.875 162.137 602.814 159.076 599.072 159.076H529.914C526.172 159.076 523.111 162.137 523.111 165.879V222.57C523.111 226.311 526.172 229.373 529.914 229.373Z" fill="#C98BD2"/>
<path d="M583.427 205.903H551.001H545.219V180.278H583.427V186.628V205.903Z" stroke="white" stroke-width="1.6466" stroke-miterlimit="10" stroke-linecap="round" stroke-linejoin="round"/>
<path d="M545.219 180.278L564.266 195.358L583.427 180.278" stroke="white" stroke-width="1.6466" stroke-miterlimit="10" stroke-linecap="round" stroke-linejoin="round"/>
<path d="M160.539 367.926H33.6723C30.0443 367.926 27.21 364.978 27.21 361.463V250.802C27.21 247.174 30.1577 244.339 33.6723 244.339H160.539C164.167 244.339 167.001 247.287 167.001 250.802V361.463C167.001 365.092 164.167 367.926 160.539 367.926Z" fill="#EDEDED"/>
<path d="M160.539 367.926H33.6723C30.0443 367.926 27.21 364.978 27.21 361.463V250.802C27.21 247.174 30.1577 244.339 33.6723 244.339H160.539C164.167 244.339 167.001 247.287 167.001 250.802V361.463C167.001 365.092 164.167 367.926 160.539 367.926Z" stroke="#DED8D5" stroke-width="1.9678" stroke-miterlimit="10"/>
<path d="M129.701 344.116H63.9434C59.7486 344.116 56.4607 340.714 56.4607 336.633V273.025C56.4607 268.83 59.8619 265.542 63.9434 265.542H129.701C133.896 265.542 137.184 268.943 137.184 273.025V336.633C137.184 340.714 133.896 344.116 129.701 344.116Z" fill="#FFB1A5"/>
<path d="M81.0631 289.352C72.2199 298.196 72.2199 312.822 81.0631 321.666C89.9063 330.51 104.532 330.51 113.375 321.666C122.218 312.822 122.218 298.196 113.375 289.352C104.532 280.508 90.0197 280.508 81.0631 289.352ZM113.375 292.64H106.119C105.439 290.373 104.418 288.105 103.285 285.724C107.366 287.084 110.881 289.466 113.375 292.64ZM88.886 304.205C88.886 301.257 89.2261 298.309 90.0197 295.361H104.645C105.325 298.309 105.779 301.257 105.779 304.205H88.886ZM105.552 306.926C105.325 309.874 104.872 312.822 103.965 315.77H90.5866C89.793 312.822 89.2261 309.874 88.9993 306.926H105.552ZM97.2757 284.93C98.4094 284.93 99.4298 285.044 100.45 285.157C101.811 287.651 102.944 290.146 103.738 292.64H90.6999C91.4936 290.146 92.6273 287.651 93.9878 285.157C95.1216 285.044 96.1419 284.93 97.2757 284.93ZM91.2668 285.837C90.1331 288.105 89.1127 290.373 88.4325 292.754H81.1765C83.7841 289.466 87.2987 287.085 91.2668 285.837ZM79.3625 295.361H87.7522C87.072 298.309 86.6185 301.257 86.6185 304.205H76.7548C76.8682 301.031 77.8886 297.969 79.3625 295.361ZM79.3625 315.77C77.8886 313.162 76.8682 310.101 76.7548 306.926H86.6185C86.7318 309.874 87.1853 312.822 87.979 315.77H79.3625ZM81.1765 318.491H88.7726C89.5662 320.759 90.4732 323.14 91.6069 325.408C87.4121 324.161 83.7841 321.78 81.1765 318.491ZM97.2757 326.201C96.3687 326.201 95.4617 326.088 94.5547 325.975C93.3076 323.48 92.1738 320.872 91.3802 318.378H103.171C102.264 320.872 101.244 323.48 99.9967 325.975C99.0897 326.088 98.1827 326.201 97.2757 326.201ZM102.944 325.408C104.078 323.14 104.985 320.759 105.779 318.491H113.375C110.767 321.78 107.139 324.161 102.944 325.408ZM115.189 315.77H106.572C107.366 312.822 107.82 309.874 107.933 306.926H117.91C117.683 310.101 116.776 313.162 115.189 315.77ZM117.91 304.205H108.046C108.046 301.257 107.593 298.309 106.913 295.361H115.302C116.776 297.969 117.683 301.031 117.91 304.205Z" fill="white"/>
<path d="M161.219 70.4105H46.2569C43.876 70.4105 41.9486 68.483 41.9486 66.102C41.9486 63.721 43.876 61.7935 46.2569 61.7935H161.219C163.6 61.7935 165.527 63.721 165.527 66.102C165.414 68.483 163.486 70.4105 161.219 70.4105Z" fill="#C98BD2"/>
<path d="M675.714 351.259H619.933C617.552 351.259 615.625 349.332 615.625 346.95C615.625 344.569 617.552 342.642 619.933 342.642H675.714C678.095 342.642 680.022 344.569 680.022 346.95C680.022 349.332 678.095 351.259 675.714 351.259Z" fill="#56DFED"/>
<path d="M636.713 401.034H629.91C628.096 401.034 626.623 399.56 626.623 397.746V391.396C626.623 389.582 628.096 388.108 629.91 388.108H636.713C638.527 388.108 640.001 389.582 640.001 391.396V397.746C639.887 399.56 638.413 401.034 636.713 401.034Z" fill="#C98BD2"/>
<path d="M65.4173 430.854H58.6148C56.8008 430.854 55.3269 429.38 55.3269 427.565V421.216C55.3269 419.402 56.8008 417.928 58.6148 417.928H65.4173C67.2313 417.928 68.7051 419.402 68.7051 421.216V427.565C68.7051 429.38 67.2313 430.854 65.4173 430.854Z" fill="#FFB1A5"/>
<path d="M535.242 65.9886H421.754C419.827 65.9886 418.353 64.5147 418.353 62.5871V34.9218C418.353 32.9943 419.827 31.5203 421.754 31.5203H535.242C537.17 31.5203 538.644 32.9943 538.644 34.9218V62.5871C538.644 64.5147 537.056 65.9886 535.242 65.9886Z" fill="#FFB1A5"/>
<path d="M434.679 43.7657H515.402" stroke="white" stroke-width="1.1803" stroke-miterlimit="10"/>
<path d="M434.679 52.0426H467.558" stroke="white" stroke-width="1.1803" stroke-miterlimit="10"/>
<path d="M431.391 62.1336V75.5127L448.397 62.1336H431.391Z" fill="#FFB1A5"/>
<path d="M299.196 68.0295H244.323C238.994 68.0295 234.686 63.721 234.686 58.392V7.36986C234.686 3.28809 237.974 0 242.055 0H299.309C303.391 0 306.679 3.28809 306.679 7.36986V60.773C306.452 64.7414 303.278 68.0295 299.196 68.0295Z" fill="#56DFED"/>
<path d="M287.292 39.0036L283.21 34.9218C282.53 34.1281 281.51 33.6746 280.603 33.6746C279.696 33.6746 278.675 34.1281 277.995 34.8084L275.614 37.1895C275.501 37.0761 275.274 37.0761 275.161 36.9627C274.82 36.8493 274.594 36.7359 274.48 36.6225C272.326 35.262 270.286 33.4478 268.358 31.0668C267.451 29.933 266.771 28.9125 266.431 28.1189C266.998 27.5519 267.565 26.985 268.018 26.5315C268.245 26.3047 268.472 26.078 268.698 25.8512C269.492 25.0575 269.945 24.1505 269.945 23.13C269.945 22.223 269.492 21.2025 268.698 20.4088L266.658 18.368C266.431 18.1412 266.204 17.9144 265.977 17.6877C265.524 17.2341 265.07 16.7806 264.617 16.3271C263.937 15.6468 262.916 15.1933 262.009 15.1933C261.102 15.1933 260.195 15.5334 259.402 16.3271L256.794 18.9349C255.887 19.8419 255.207 21.0891 255.093 22.5631C254.98 24.7174 255.547 26.7583 256 28.1189C257.134 31.5203 258.948 34.4683 261.669 37.643C264.957 41.498 268.812 44.5593 273.347 46.827C275.047 47.6206 277.315 48.5277 279.922 48.7545C280.036 48.7545 280.262 48.7545 280.489 48.7545C282.19 48.7545 283.664 48.0742 284.911 46.827C284.911 46.827 284.911 46.827 285.024 46.7136C285.364 46.2601 285.818 45.8065 286.385 45.353C286.725 45.0129 287.065 44.6727 287.292 44.4459C288.879 42.7452 288.879 40.5909 287.292 39.0036ZM285.704 42.8586C285.364 43.1987 285.138 43.4255 284.797 43.7656C284.231 44.2192 283.89 44.6727 283.324 45.2396C282.643 45.9199 281.736 46.3734 280.716 46.3734C280.603 46.3734 280.489 46.3734 280.376 46.3734C278.222 46.2601 276.181 45.353 274.707 44.6727C270.512 42.6318 266.884 39.7973 263.823 36.169C261.329 33.2211 259.628 30.2731 258.495 27.3252C257.814 25.6244 257.474 24.1505 257.588 22.7899C257.701 21.9962 257.928 21.2025 258.608 20.6356L261.102 18.1412C261.329 17.9144 261.669 17.5743 262.123 17.5743C262.576 17.5743 262.803 17.8011 263.143 18.1412C263.596 18.5947 264.05 19.0483 264.503 19.5018C264.73 19.7286 264.957 20.0687 265.184 20.1821L267.224 22.223C267.451 22.4497 267.791 22.9033 267.791 23.2434C267.791 23.6969 267.451 24.0371 267.224 24.2639C266.998 24.4906 266.771 24.7174 266.544 24.9441C265.864 25.6244 265.297 26.1914 264.73 26.7583C264.73 26.7583 264.73 26.7583 264.617 26.8717C263.937 27.5519 264.05 28.2322 264.163 28.6858V28.7992C264.73 30.1597 265.524 31.2936 266.544 32.7675C268.585 35.3753 270.739 37.3028 273.233 38.8902C273.573 39.117 273.914 39.2303 274.14 39.4571C274.48 39.5705 274.707 39.6839 274.821 39.7973L274.934 39.9106C275.614 40.2508 276.408 40.1374 276.975 39.5705L279.582 36.9627C279.809 36.7359 280.149 36.3958 280.603 36.3958C280.943 36.3958 281.283 36.7359 281.51 36.9627L285.591 41.0445C286.271 41.3846 286.271 42.1783 285.704 42.8586Z" fill="white"/>
<path d="M466.651 306.11C470.392 346.973 466.424 376.813 467.558 452.083L431.278 453.53L425.836 312.679L466.651 306.11Z" fill="#FFB1A5"/>
<path d="M430.371 337.954C430.371 337.954 452.819 335.95 468.238 325.929L467.785 317.133L430.371 322.143V337.954Z" fill="#F3978E"/>
<path d="M394.318 211.912C394.318 211.912 465.744 229.504 478.669 318.469C478.669 318.469 443.749 333.389 408.716 326.931L416.539 297.202L394.318 211.912Z" fill="#C98BD2"/>
<path d="M181.06 249.555L234.232 312.369L218.02 358.175C218.02 358.175 177.658 302.051 159.518 258.626L181.06 249.555Z" fill="#FFB1A5"/>
<path d="M182.76 251.823C182.76 251.823 164.053 262.367 159.405 258.512C151.129 251.823 144.213 227.445 144.213 227.445C144.213 227.445 179.132 214.293 178.792 214.746C178.452 215.313 182.76 251.823 182.76 251.823Z" fill="#FFB1A5"/>
<path d="M182.76 251.823C182.42 249.895 189.676 229.713 192.17 222.116C192.737 220.302 191.49 218.261 189.563 217.921C188.316 217.694 186.161 217.808 185.254 219.735L176.525 234.702L182.76 251.823Z" fill="#FFB1A5"/>
<path d="M182.193 229.94L176.184 200.007C175.844 197.966 173.804 196.605 171.876 197.059C170.176 197.399 169.042 198.873 169.269 200.687L171.876 222.91L182.193 229.94Z" fill="#FFB1A5"/>
<path d="M170.176 218.942L162.013 197.626C161.332 195.812 159.178 194.678 157.364 195.358C155.777 195.925 154.87 197.512 155.21 199.213L161.219 223.93L170.176 218.942Z" fill="#FFB1A5"/>
<path d="M161.446 225.178L151.129 204.202C150.222 202.274 147.841 201.367 145.913 202.161C144.099 202.955 143.306 204.996 144.099 206.923L152.376 226.765L161.446 225.178Z" fill="#FFB1A5"/>
<path d="M144.213 227.445L136.163 214.633C135.483 213.159 136.163 211.458 137.524 210.778C138.884 210.098 140.698 210.665 141.605 211.912L152.262 226.652L144.213 227.445Z" fill="#FFB1A5"/>
<path d="M180.493 227.672C180.493 227.672 168.362 226.425 167.114 242.639" stroke="#282828" stroke-width="1.5317" stroke-miterlimit="10" stroke-linecap="round" stroke-linejoin="round"/>
<path d="M207.136 336.746C207.136 336.746 217.113 371.328 237.067 366.792C257.021 362.144 288.085 319.625 288.085 319.625L281.169 246.947L225.276 315.77L207.136 336.746Z" fill="#FFB1A5"/>
<path d="M242.509 294.341C242.509 294.341 261.329 322.8 277.541 332.891L288.085 319.625L247.384 288.218L242.509 294.341Z" fill="#F3978E"/>
<path d="M325.159 210.325C325.159 210.325 269.719 222.797 240.241 287.198C240.241 287.198 258.041 314.07 286.725 326.088L305.885 302.618L325.159 210.325Z" fill="#C98BD2"/>
<path d="M325.159 210.098C303.504 221.209 289.899 235.949 289.899 235.949L294.208 424.277H430.597L430.144 236.969C430.144 236.969 412.911 220.189 394.317 211.912C378.445 204.882 340.464 202.274 325.159 210.098Z" fill="#C98BD2"/>
<path d="M389.669 301.824C379.239 301.824 370.736 293.321 370.736 282.889V263.954H408.716V282.889C408.603 293.321 400.1 301.824 389.669 301.824Z" stroke="#282828" stroke-width="1.3968" stroke-miterlimit="10" stroke-linecap="round" stroke-linejoin="round"/>
<path d="M430.371 329.83L432.071 268.15" stroke="#282828" stroke-width="1.3968" stroke-miterlimit="10" stroke-linecap="round" stroke-linejoin="round"/>
<path d="M291.94 319.512L288.992 266.109" stroke="#282828" stroke-width="1.3968" stroke-miterlimit="10" stroke-linecap="round" stroke-linejoin="round"/>
<path d="M296.248 415.093V538H357.131L361.779 415.093H296.248Z" fill="#005683"/>
<path d="M428.217 415.093V538H367.334L362.686 415.093H428.217Z" fill="#005683"/>
<path d="M394.998 415.093H332.188V457.839H394.998V415.093Z" fill="#005683"/>
<path d="M340.918 457.725H384.341" stroke="#282828" stroke-width="1.3968" stroke-miterlimit="10" stroke-linecap="round" stroke-linejoin="round"/>
<path d="M326.746 141.388L321.077 113.269C320.737 111.001 319.83 107.487 320.964 104.085C322.778 98.6428 329.354 87.9848 340.691 92.8603L343.186 103.972C343.186 103.972 331.395 106.353 326.746 121.659V141.388Z" fill="#282828"/>
<path d="M339.784 98.6428C339.558 102.384 336.27 118.485 324.819 124.381C324.819 124.381 314.842 102.838 339.784 98.6428Z" fill="#282828"/>
<path d="M380.032 204.996V157.262H336.043V204.996L322.891 211.005C322.891 211.005 325.953 230.847 358.491 231.3C391.03 231.754 394.318 212.025 394.318 212.025L380.032 204.996Z" fill="#FFB1A5"/>
<path d="M340.691 92.8603C340.691 92.8603 348.741 71.5444 373.683 82.8826C388.762 89.7989 392.957 98.9829 394.771 105.446C395.338 107.6 395.565 111.001 395.451 113.042L389.442 141.388L365.861 102.158L343.072 103.972L340.691 92.8603Z" fill="#282828"/>
<path d="M389.442 141.388C389.442 141.388 392.39 136.626 398.512 139.007C404.635 141.275 401.914 156.241 392.73 158.055C392.73 158.055 389.442 158.736 386.835 156.468C386.835 156.468 389.102 145.47 389.442 141.388Z" fill="#F3978E"/>
<path d="M397.265 144.223C397.265 144.223 392.163 142.522 388.535 150.118" stroke="#282828" stroke-width="1.3968" stroke-miterlimit="10" stroke-linecap="round" stroke-linejoin="round"/>
<path d="M326.746 141.388C326.746 141.388 323.798 136.626 317.676 139.007C311.554 141.275 314.275 156.241 323.458 158.055C323.458 158.055 326.746 158.736 329.354 156.468C329.354 156.468 327.086 145.47 326.746 141.388Z" fill="#F3978E"/>
<path d="M318.81 144.223C318.81 144.223 323.912 142.522 327.54 150.118" stroke="#282828" stroke-width="1.3968" stroke-miterlimit="10" stroke-linecap="round" stroke-linejoin="round"/>
<path d="M390.009 127.215C390.009 136.172 389.102 154.994 383.66 166.105C378.445 176.537 369.942 182.206 358.718 182.546C347.494 182.886 339.104 178.577 332.415 164.972C325.726 151.366 326.066 127.442 326.066 127.442C326.066 127.442 326.066 95.4681 357.697 95.4681C391.03 95.3547 390.009 127.215 390.009 127.215Z" fill="#FFB1A5"/>
<path d="M336.383 171.661C336.383 171.661 340.124 190.369 356.337 192.524C375.044 195.018 380.032 172.115 380.032 172.115C380.032 172.115 371.756 182.546 358.604 182.546C344.093 182.546 336.383 171.661 336.383 171.661Z" fill="#282828"/>
<path d="M355.77 140.594V147.964C355.77 148.304 355.883 148.531 355.997 148.871C356.45 150.005 357.697 150.459 358.831 150.232L361.325 149.552" stroke="#282828" stroke-width="1.3968" stroke-miterlimit="10" stroke-linecap="round" stroke-linejoin="round"/>
<path d="M346.36 136.966C346.36 138.553 345.113 139.801 343.526 139.801C341.938 139.801 340.691 138.553 340.691 136.966C340.691 135.379 341.938 134.132 343.526 134.132C345.113 134.132 346.36 135.379 346.36 136.966Z" fill="#282828"/>
<path d="M373.457 136.966C373.457 138.553 372.209 139.801 370.622 139.801C369.035 139.801 367.788 138.553 367.788 136.966C367.788 135.379 369.035 134.132 370.622 134.132C372.096 134.132 373.457 135.379 373.457 136.966Z" fill="#282828"/>
<path d="M363.139 122.68L382.527 127.669C382.527 127.669 381.62 122.226 373.683 120.299C365.86 118.258 363.139 122.68 363.139 122.68Z" fill="#282828"/>
<path d="M351.122 122.68L331.735 127.669C331.735 127.669 332.642 122.226 340.578 120.299C348.514 118.258 351.122 122.68 351.122 122.68Z" fill="#282828"/>
<path d="M347.267 155.447C347.267 155.447 350.101 157.602 357.697 157.602C364.5 157.602 368.808 155.447 368.808 155.447" stroke="#282828" stroke-width="1.3968" stroke-miterlimit="10" stroke-linecap="round" stroke-linejoin="round"/>
<path d="M342.732 150.118C349.494 150.118 354.977 144.636 354.977 137.873C354.977 131.11 349.494 125.628 342.732 125.628C335.97 125.628 330.488 131.11 330.488 137.873C330.488 144.636 335.97 150.118 342.732 150.118Z" stroke="white" stroke-width="1.9514" stroke-miterlimit="10"/>
<path d="M372.89 150.118C379.652 150.118 385.134 144.636 385.134 137.873C385.134 131.11 379.652 125.628 372.89 125.628C366.127 125.628 360.645 131.11 360.645 137.873C360.645 144.636 366.127 150.118 372.89 150.118Z" stroke="white" stroke-width="1.9514" stroke-miterlimit="10"/>
<path d="M354.976 137.873C354.976 137.873 357.924 135.152 360.532 137.873" stroke="white" stroke-width="1.9514" stroke-miterlimit="10"/>
<path d="M330.488 137.873L326.406 137.76" stroke="white" stroke-width="1.9514" stroke-miterlimit="10"/>
<path d="M385.134 137.873L389.669 137.76" stroke="white" stroke-width="1.9514" stroke-miterlimit="10"/>
<path d="M336.383 99.4365C336.383 99.4365 342.279 116.104 368.808 115.65C386.835 115.31 391.143 128.349 391.143 128.349C391.143 128.349 387.969 99.2097 387.175 99.4365C386.381 99.6632 359.738 92.2934 359.738 92.2934L336.383 99.4365Z" fill="#282828"/>
</svg>
