<svg width="353" height="444" viewBox="0 0 353 444" fill="none" xmlns="http://www.w3.org/2000/svg">
<path d="M235.09 41.9256H228.288C226.474 41.9256 225 40.4516 225 38.6375V32.2881C225 30.474 226.474 29 228.288 29H235.09C236.904 29 238.378 30.474 238.378 32.2881V38.6375C238.378 40.4516 236.904 41.9256 235.09 41.9256Z" fill="#FFB1A5"/>
<path d="M349.09 357.926H342.288C340.474 357.926 339 356.452 339 354.638V348.288C339 346.474 340.474 345 342.288 345H349.09C350.904 345 352.378 346.474 352.378 348.288V354.638C352.265 356.452 350.791 357.926 349.09 357.926Z" fill="#C98BD2"/>
<path d="M192.281 9H119.719C118.217 9 117 6.98684 117 4.5C117 2.01316 118.217 0 119.719 0H192.281C193.783 0 195 2.01316 195 4.5C194.928 6.98684 193.712 9 192.281 9Z" fill="#C98BD2"/>
<path d="M139.945 73H5.05505C2.26147 73 0 70.9868 0 68.5C0 66.0132 2.26147 64 5.05505 64H139.945C142.739 64 145 66.0132 145 68.5C144.867 70.9868 142.605 73 139.945 73Z" fill="#A37A74"/>
<path d="M277.571 444H239.429C238.639 444 238 441.987 238 439.5C238 437.013 238.639 435 239.429 435H277.571C278.361 435 279 437.013 279 439.5C278.962 441.987 278.323 444 277.571 444Z" fill="#FFB1A5"/>
</svg>
