<svg width="77" height="78" viewBox="0 0 77 78" fill="none" xmlns="http://www.w3.org/2000/svg">
<path d="M63.9515 13.3398H13.1941C9.70447 13.3398 6.88109 16.2278 6.88109 19.7575L6.84937 58.2631C6.84937 61.7928 9.70447 64.6807 13.1941 64.6807H63.9515C67.4411 64.6807 70.2962 61.7928 70.2962 58.2631V19.7575C70.2962 16.2278 67.4411 13.3398 63.9515 13.3398ZM62.6826 26.9773L40.2541 41.1602C39.239 41.802 37.9066 41.802 36.8915 41.1602L14.463 26.9773C14.1449 26.7966 13.8663 26.5526 13.6442 26.26C13.422 25.9673 13.2609 25.6321 13.1705 25.2746C13.0801 24.9171 13.0624 24.5448 13.1184 24.1802C13.1744 23.8156 13.303 23.4662 13.4963 23.1533C13.6897 22.8404 13.9438 22.5705 14.2432 22.3598C14.5427 22.1491 14.8813 22.0021 15.2386 21.9276C15.5959 21.8531 15.9644 21.8527 16.3218 21.9264C16.6793 22.0002 17.0182 22.1465 17.3181 22.3566L38.5728 35.8015L59.8275 22.3566C60.1274 22.1465 60.4663 22.0002 60.8237 21.9264C61.1812 21.8527 61.5497 21.8531 61.907 21.9276C62.2643 22.0021 62.6029 22.1491 62.9024 22.3598C63.2018 22.5705 63.4559 22.8404 63.6493 23.1533C63.8426 23.4662 63.9712 23.8156 64.0272 24.1802C64.0832 24.5448 64.0655 24.9171 63.9751 25.2746C63.8847 25.6321 63.7236 25.9673 63.5014 26.26C63.2793 26.5526 63.0007 26.7966 62.6826 26.9773Z" fill="#2B4570" fill-opacity="0.75"/>
</svg>
