<svg width="77" height="78" viewBox="0 0 77 78" fill="none" xmlns="http://www.w3.org/2000/svg">
<path d="M38.5728 6.92236C47.192 6.92236 48.2675 6.95445 51.6492 7.11489C55.0277 7.27533 57.3277 7.8112 59.3516 8.60699C61.4454 9.42202 63.2092 10.5259 64.973 12.3067C66.5861 13.9108 67.8343 15.8512 68.6307 17.9927C69.4143 20.0368 69.9473 22.3663 70.1059 25.7837C70.255 29.2043 70.2962 30.2921 70.2962 39.0104C70.2962 47.7288 70.2645 48.8165 70.1059 52.2371C69.9473 55.6545 69.4143 57.9809 68.6307 60.0281C67.8366 62.1709 66.5881 64.1117 64.973 65.7141C63.3867 67.3452 61.4686 68.6077 59.3516 69.4139C57.3309 70.2064 55.0277 70.7455 51.6492 70.906C48.2675 71.0568 47.192 71.0985 38.5728 71.0985C29.9535 71.0985 28.8781 71.0664 25.4964 70.906C22.1179 70.7455 19.8179 70.2064 17.7939 69.4139C15.6759 68.61 13.7572 67.3472 12.1726 65.7141C10.5591 64.1103 9.31089 62.1699 8.51485 60.0281C7.7281 57.9841 7.19832 55.6545 7.03971 52.2371C6.89061 48.8165 6.84937 47.7288 6.84937 39.0104C6.84937 30.2921 6.88109 29.2043 7.03971 25.7837C7.19832 22.3631 7.7281 20.04 8.51485 17.9927C9.30868 15.8498 10.5572 13.909 12.1726 12.3067C13.7577 10.6742 15.6762 9.41153 17.7939 8.60699C19.8179 7.8112 22.1147 7.27533 25.4964 7.11489C28.8781 6.96408 29.9535 6.92236 38.5728 6.92236ZM38.5728 22.9664C34.366 22.9664 30.3315 24.6567 27.3569 27.6656C24.3822 30.6744 22.7111 34.7553 22.7111 39.0104C22.7111 43.2656 24.3822 47.3464 27.3569 50.3553C30.3315 53.3641 34.366 55.0545 38.5728 55.0545C42.7796 55.0545 46.8141 53.3641 49.7887 50.3553C52.7634 47.3464 54.4345 43.2656 54.4345 39.0104C54.4345 34.7553 52.7634 30.6744 49.7887 27.6656C46.8141 24.6567 42.7796 22.9664 38.5728 22.9664ZM59.193 22.1642C59.193 21.1004 58.7752 20.0802 58.0316 19.328C57.2879 18.5758 56.2793 18.1532 55.2276 18.1532C54.1759 18.1532 53.1673 18.5758 52.4236 19.328C51.6799 20.0802 51.2622 21.1004 51.2622 22.1642C51.2622 23.228 51.6799 24.2482 52.4236 25.0004C53.1673 25.7526 54.1759 26.1752 55.2276 26.1752C56.2793 26.1752 57.2879 25.7526 58.0316 25.0004C58.7752 24.2482 59.193 23.228 59.193 22.1642ZM38.5728 29.384C41.0969 29.384 43.5176 30.3982 45.3023 32.2035C47.0871 34.0088 48.0898 36.4573 48.0898 39.0104C48.0898 41.5635 47.0871 44.012 45.3023 45.8173C43.5176 47.6226 41.0969 48.6368 38.5728 48.6368C36.0487 48.6368 33.628 47.6226 31.8432 45.8173C30.0584 44.012 29.0558 41.5635 29.0558 39.0104C29.0558 36.4573 30.0584 34.0088 31.8432 32.2035C33.628 30.3982 36.0487 29.384 38.5728 29.384Z" fill="#2B4570" fill-opacity="0.75"/>
</svg>
