<svg width="78" height="78" viewBox="0 0 78 78" fill="none" xmlns="http://www.w3.org/2000/svg">
<path d="M61.5969 10.1311C63.2989 10.1311 64.9313 10.8072 66.1348 12.0108C67.3384 13.2143 68.0145 14.8467 68.0145 16.5487V61.472C68.0145 63.1741 67.3384 64.8064 66.1348 66.0099C64.9313 67.2135 63.2989 67.8896 61.5969 67.8896H16.6736C14.9715 67.8896 13.3392 67.2135 12.1357 66.0099C10.9321 64.8064 10.256 63.1741 10.256 61.472V16.5487C10.256 14.8467 10.9321 13.2143 12.1357 12.0108C13.3392 10.8072 14.9715 10.1311 16.6736 10.1311H61.5969ZM59.9925 59.8676V42.8609C59.9925 40.0866 58.8904 37.4259 56.9286 35.4641C54.9668 33.5023 52.3061 32.4002 49.5318 32.4002C46.8043 32.4002 43.6276 34.0688 42.0873 36.5717V33.0099H33.1348V59.8676H42.0873V44.0482C42.0873 41.5774 44.0768 39.5559 46.5476 39.5559C47.739 39.5559 48.8817 40.0292 49.7241 40.8716C50.5666 41.7141 51.0399 42.8567 51.0399 44.0482V59.8676H59.9925ZM22.7062 27.9721C24.1359 27.9721 25.507 27.4041 26.518 26.3931C27.529 25.3822 28.0969 24.011 28.0969 22.5813C28.0969 19.5971 25.6903 17.1584 22.7062 17.1584C21.2679 17.1584 19.8886 17.7297 18.8716 18.7467C17.8546 19.7637 17.2833 21.143 17.2833 22.5813C17.2833 25.5655 19.722 27.9721 22.7062 27.9721ZM27.1664 59.8676V33.0099H18.278V59.8676H27.1664Z" fill="#2B4570" fill-opacity="0.75"/>
</svg>
