<svg width="78" height="78" viewBox="0 0 78 78" fill="none" xmlns="http://www.w3.org/2000/svg">
<path d="M7.06 71.0985L11.3983 55.1571C8.5397 50.2568 7.03784 44.6836 7.04716 39.0104C7.04716 21.2882 21.413 6.92236 39.1352 6.92236C56.8575 6.92236 71.2233 21.2882 71.2233 39.0104C71.2233 56.7327 56.8575 71.0985 39.1352 71.0985C33.4646 71.1076 27.8937 69.6069 22.9949 66.7506L7.06 71.0985ZM27.5546 23.9547C27.1403 23.9804 26.7354 24.0896 26.3642 24.2756C26.0161 24.4727 25.6983 24.7191 25.4208 25.0072C25.0357 25.3698 24.8175 25.6843 24.5833 25.9891C23.3974 27.5325 22.7594 29.4271 22.7703 31.3735C22.7767 32.9458 23.1875 34.4764 23.8292 35.9075C25.1416 38.8019 27.3011 41.8663 30.1538 44.7061C30.8405 45.3895 31.5111 46.0762 32.2331 46.7148C35.7736 49.832 39.9928 52.08 44.5549 53.28L46.3807 53.5592C46.9743 53.5912 47.568 53.5463 48.1648 53.5174C49.0993 53.4692 50.0118 53.2162 50.8377 52.7762C51.2579 52.5598 51.668 52.3242 52.0667 52.0703C52.0667 52.0703 52.2047 51.9804 52.4678 51.7815C52.901 51.4606 53.1673 51.2328 53.5267 50.8573C53.7931 50.5814 54.0241 50.2573 54.2006 49.8883C54.4509 49.3652 54.7011 48.3673 54.8038 47.5362C54.8808 46.9009 54.8584 46.5543 54.8487 46.3393C54.8359 45.996 54.5503 45.6398 54.2391 45.489L52.3716 44.6515C52.3716 44.6515 49.5799 43.4354 47.876 42.6588C47.6964 42.5805 47.5038 42.5359 47.3081 42.5273C47.0885 42.5047 46.8667 42.5294 46.6575 42.5997C46.4483 42.67 46.2565 42.7843 46.0951 42.9348V42.9284C46.0791 42.9284 45.8641 43.1113 43.5441 45.9222C43.411 46.1011 43.2275 46.2363 43.0172 46.3106C42.8069 46.3849 42.5793 46.3949 42.3633 46.3393C42.1542 46.2834 41.9494 46.2127 41.7504 46.1276C41.3525 45.9607 41.2145 45.8965 40.9418 45.7778L40.9257 45.7714C39.09 44.9699 37.3904 43.8873 35.8879 42.5626C35.4836 42.2096 35.1082 41.8245 34.7231 41.4523C33.4607 40.2434 32.3605 38.8757 31.4501 37.3836L31.2608 37.0787C31.1248 36.8739 31.0149 36.6529 30.9335 36.4209C30.8116 35.9492 31.1293 35.5706 31.1293 35.5706C31.1293 35.5706 31.909 34.717 32.2716 34.255C32.5735 33.8709 32.8552 33.4714 33.1155 33.0581C33.4941 32.4484 33.6129 31.8227 33.4139 31.3382C32.5155 29.1433 31.5849 26.9581 30.6287 24.789C30.4394 24.359 29.8778 24.051 29.3676 23.99C29.1943 23.9708 29.0211 23.9515 28.8478 23.9387C28.4169 23.9173 27.9851 23.9215 27.5546 23.9515V23.9547Z" fill="#2B4570" fill-opacity="0.75"/>
</svg>
